<svg width="17" height="17" viewBox="0 0 17 17" fill="none" xmlns="http://www.w3.org/2000/svg">
<path fill-rule="evenodd" clip-rule="evenodd" d="M1.31083 16.184C1.06429 15.9375 0.925781 15.6031 0.925781 15.2544C0.925781 14.9058 1.06429 14.5714 1.31083 14.3248L12.0811 3.55458L4.09961 3.55644C3.7505 3.55644 3.4157 3.41775 3.16884 3.1709C2.92199 2.92404 2.7833 2.58924 2.7833 2.24013C2.7833 1.89103 2.92199 1.55622 3.16884 1.30937C3.4157 1.06251 3.7505 0.923829 4.09961 0.923829L15.2547 0.923829C15.4276 0.923611 15.5989 0.957509 15.7587 1.02358C15.9185 1.08966 16.0637 1.18661 16.186 1.30888C16.3082 1.43115 16.4052 1.57635 16.4713 1.73615C16.5373 1.89595 16.5712 2.06721 16.571 2.24013L16.571 13.3952C16.571 13.7443 16.4323 14.0792 16.1855 14.326C15.9386 14.5729 15.6038 14.7115 15.2547 14.7115C14.9056 14.7115 14.5708 14.5729 14.3239 14.326C14.0771 14.0792 13.9384 13.7443 13.9384 13.3952L13.9403 5.41376L3.17002 16.184C2.92347 16.4306 2.58909 16.5691 2.24042 16.5691C1.89176 16.5691 1.55737 16.4306 1.31083 16.184Z" fill="#303030"/>
</svg>
